<svg width="200" height="200" xmlns="http://www.w3.org/2000/svg">
  <!-- 像素风格苹果 -->
  <!-- 苹果茎 -->
  <rect x="90" y="40" width="20" height="20" fill="#5D4037"/>
  <rect x="100" y="20" width="10" height="20" fill="#795548"/>
  <rect x="110" y="30" width="10" height="10" fill="#4CAF50"/>
  
  <!-- 苹果果肉 - 红色部分 -->
  <rect x="60" y="60" width="10" height="10" fill="#D32F2F"/>
  <rect x="70" y="60" width="60" height="10" fill="#F44336"/>
  <rect x="130" y="60" width="10" height="10" fill="#D32F2F"/>
  
  <rect x="50" y="70" width="10" height="10" fill="#D32F2F"/>
  <rect x="60" y="70" width="80" height="10" fill="#F44336"/>
  <rect x="140" y="70" width="10" height="10" fill="#D32F2F"/>
  
  <rect x="50" y="80" width="10" height="40" fill="#F44336"/>
  <rect x="60" y="80" width="80" height="40" fill="#E53935"/>
  <rect x="140" y="80" width="10" height="40" fill="#F44336"/>
  
  <rect x="60" y="120" width="10" height="10" fill="#F44336"/>
  <rect x="70" y="120" width="60" height="10" fill="#E53935"/>
  <rect x="130" y="120" width="10" height="10" fill="#F44336"/>
  
  <rect x="70" y="130" width="60" height="10" fill="#D32F2F"/>
  
  <!-- 高光 -->
  <rect x="70" y="70" width="10" height="10" fill="#FFCDD2"/>
  <rect x="80" y="80" width="10" height="10" fill="#FFCDD2"/>
</svg>
