<svg width="24" height="24" viewBox="0 0 24 24" xmlns="http://www.w3.org/2000/svg">
  <path d="M12 2C6.477 2 2 6.477 2 12C2 16.418 4.865 20.166 8.84 21.494C9.34 21.591 9.52 21.275 9.52 21.003C9.52 20.719 9.512 19.91 9.508 19.082C6.726 19.59 6.14 17.602 6.14 17.602C5.684 16.501 5.032 16.186 5.032 16.186C4.134 15.546 5.113 15.56 5.113 15.56C6.113 15.634 6.64 16.619 6.64 16.619C7.504 18.061 8.96 17.632 9.542 17.37C9.643 16.748 9.862 16.318 10.1 16.041C7.932 15.76 5.662 14.931 5.662 11.202C5.662 10.117 6.052 9.239 6.662 8.561C6.546 8.301 6.204 7.352 6.772 6.018C6.772 6.018 7.572 5.742 9.502 7.158C10.252 6.929 11.042 6.815 11.832 6.811C12.622 6.815 13.412 6.929 14.162 7.158C16.092 5.742 16.892 6.018 16.892 6.018C17.462 7.352 17.122 8.301 17.002 8.561C17.612 9.239 18.002 10.117 18.002 11.202C18.002 14.941 15.732 15.755 13.562 16.031C13.862 16.368 14.122 17.04 14.122 18.065C14.122 19.482 14.112 20.631 14.112 21.001C14.112 21.275 14.292 21.595 14.802 21.489C18.772 20.161 21.632 16.417 21.632 12C21.632 6.477 17.152 2 11.632 2H12Z" fill="currentColor"/>
</svg>
